# xmcd
#
# Track frame offsets: 
#        183
#        14958
#        28533
#        41508
#        61083
#        73683
#        84933
#        98208
#        113208
#        130383
#        144033
#        156708
#        179508
#        206458
#        229083
#
# Disc length: 3532 seconds
#
# Revision: 1
# Processed by: cddbd v1.5.1PL0 Copyright (c) Steve Scherf et al.
# Submitted via: ExactAudioCopy v0.95a4
#
DISCID=cf0dca0f
DTITLE=Gloria Gaynor - The Best Of
DYEAR=1988
DGENRE=R&B
TTITLE0=I Will Survive
TTITLE1=Never Can Say Goodbye
TTITLE2=How High The Moom
TTITLE3=Let's Make A Deal
TTITLE4=All I Need Is Your Sweet Lovin'
TTITLE5=Casanova Brown
TTITLE6=Honey Bee
TTITLE7=Reach Out (I'll Be There)
TTITLE8=I've Got You Under My Skin
TTITLE9=Walk On By
TTITLE10=(If You Want It) Do It Yourself
TTITLE11=We Can Start All Over Again
TTITLE12=Honeybee (Clubmix)
TTITLE13=Never Can Say Goodbye (Dance Mix)
TTITLE14=I Will Survive (Extended Remix)
EXTD=YEAR: 1988 ID3G: 0
EXTT0=
EXTT1=
EXTT2=
EXTT3=
EXTT4=
EXTT5=
EXTT6=
EXTT7=
EXTT8=
EXTT9=
EXTT10=
EXTT11=
EXTT12=
EXTT13=
EXTT14=
PLAYORDER=
